<svg width="32" height="32" viewBox="0 0 32 32" fill="none" xmlns="http://www.w3.org/2000/svg">
  <rect width="32" height="32" rx="16" fill="url(#paint0_linear)" />
  <path d="M16 8C11.5817 8 8 11.5817 8 16C8 20.4183 11.5817 24 16 24C20.4183 24 24 20.4183 24 16C24 11.5817 20.4183 8 16 8ZM13 13.5C13 12.6716 13.6716 12 14.5 12H17.5C18.3284 12 19 12.6716 19 13.5V18.5C19 19.3284 18.3284 20 17.5 20H14.5C13.6716 20 13 19.3284 13 18.5V13.5ZM16 14C15.4477 14 15 14.4477 15 15C15 15.5523 15.4477 16 16 16C16.5523 16 17 15.5523 17 15C17 14.4477 16.5523 14 16 14Z" fill="white" />
  <defs>
    <linearGradient id="paint0_linear" x1="0" y1="0" x2="32" y2="32" gradientUnits="userSpaceOnUse">
      <stop stop-color="#4338CA" />
      <stop offset="1" stop-color="#7E22CE" />
    </linearGradient>
  </defs>
</svg>