<?xml version="1.0" encoding="UTF-8" standalone="no"?>
<svg width="100%" height="100%" viewBox="0 0 500 500" version="1.1" xmlns="http://www.w3.org/2000/svg">
    <defs>
        <linearGradient id="circuitGradient" x1="0%" y1="0%" x2="100%" y2="100%">
            <stop offset="0%" style="stop-color:#9b87f5;stop-opacity:1" />
            <stop offset="100%" style="stop-color:#D6BCFA;stop-opacity:1" />
        </linearGradient>
    </defs>
    <g>
        <!-- Base do capacete -->
        <path d="M250 100 
                 C220 100 195 110 175 130 
                 C155 150 145 175 145 205 
                 L145 300 
                 C145 330 155 355 175 375 
                 C195 395 220 405 250 405 
                 C280 405 305 395 325 375 
                 C345 355 355 330 355 300 
                 L355 205 
                 C355 175 345 150 325 130 
                 C305 110 280 100 250 100" 
              fill="#9b87f5"/>

        <!-- Circuitos em estilo de chip -->
        <path d="M190 180 L310 180 L310 320 L190 320 Z" 
              stroke="#D6BCFA" 
              stroke-width="2" 
              fill="none" 
              stroke-dasharray="5,5"/>

        <!-- Linhas de dados -->
        <path d="M200 200 C230 200 270 240 300 240" 
              stroke="#D6BCFA" 
              stroke-width="2" 
              fill="none"/>
        
        <path d="M200 280 C230 280 270 240 300 240" 
              stroke="#D6BCFA" 
              stroke-width="2" 
              fill="none"/>

        <!-- Pontos de conexão -->
        <circle cx="200" cy="200" r="3" fill="#D6BCFA"/>
        <circle cx="300" cy="240" r="3" fill="#D6BCFA"/>
        <circle cx="200" cy="280" r="3" fill="#D6BCFA"/>

        <!-- Pequenos circuitos decorativos -->
        <path d="M170 220 L180 220 L180 260 L170 260" 
              stroke="#D6BCFA" 
              stroke-width="1.5" 
              fill="none"/>
        
        <path d="M320 220 L330 220 L330 260 L320 260" 
              stroke="#D6BCFA" 
              stroke-width="1.5" 
              fill="none"/>

        <!-- Texto AI com efeito de circuito -->
        <text x="235" y="260" 
              font-family="Arial" 
              font-size="28" 
              font-weight="bold"
              fill="#D6BCFA">AI</text>
    </g>
</svg> 