<?xml version="1.0" standalone="no"?>
<!DOCTYPE svg PUBLIC "-//W3C//DTD SVG 20010904//EN"
 "http://www.w3.org/TR/2001/REC-SVG-20010904/DTD/svg10.dtd">
<svg version="1.0" xmlns="http://www.w3.org/2000/svg"
 width="1024.000000pt" height="1024.000000pt" viewBox="0 0 1024.000000 1024.000000"
 preserveAspectRatio="xMidYMid meet">

<g transform="translate(0.000000,1024.000000) scale(0.100000,-0.100000)"
fill="#000000" stroke="none">
<path d="M0 5120 l0 -5120 5120 0 5120 0 0 5120 0 5120 -5120 0 -5120 0 0
-5120z m5177 4249 c73 -27 127 -113 127 -205 1 -52 -3 -66 -28 -98 -16 -21
-49 -53 -74 -70 l-44 -31 6 -89 c3 -49 6 -122 6 -163 0 -65 2 -73 19 -73 49 0
108 -84 118 -170 10 -85 -49 -181 -126 -205 -23 -7 -24 -9 -17 -83 3 -41 6
-423 6 -848 l0 -773 78 -67 c116 -100 222 -178 230 -170 4 4 8 380 10 836 l3
827 62 73 62 73 -3 311 -3 311 -27 9 c-58 19 -107 89 -118 169 -11 77 42 169
118 208 79 40 172 14 234 -68 70 -91 62 -209 -18 -277 -23 -20 -46 -36 -51
-36 -6 0 -7 -133 -4 -343 l5 -343 -69 -72 -68 -72 -3 -245 c-2 -135 -1 -245 1
-245 3 0 32 28 65 63 34 34 136 135 229 224 l167 161 0 95 0 95 -29 12 c-40
16 -68 48 -86 99 -33 94 -8 188 68 257 l49 43 -8 125 c-6 112 -9 126 -26 132
-11 3 -33 27 -49 52 -47 74 -37 162 25 230 33 37 70 52 127 52 89 0 157 -56
176 -145 18 -82 -22 -168 -93 -202 l-34 -17 0 -122 c0 -114 1 -123 20 -129 28
-9 77 -61 100 -106 22 -43 27 -137 9 -172 -17 -33 -81 -98 -106 -108 -22 -8
-23 -13 -23 -131 l0 -123 -266 -260 c-147 -143 -277 -267 -290 -275 l-24 -15
0 -523 0 -522 25 -10 c14 -5 88 -43 166 -85 77 -41 143 -75 145 -75 2 0 4 205
4 456 l0 455 159 167 c87 92 218 225 291 297 l132 129 5 416 5 415 -32 23
c-41 31 -70 94 -70 157 0 200 248 288 357 127 31 -47 47 -131 34 -180 -15 -52
-76 -120 -125 -136 l-39 -14 -5 -341 c-3 -215 -1 -341 5 -341 6 0 39 30 74 68
35 37 110 111 166 164 l101 97 -19 38 c-34 67 -21 136 41 207 44 50 79 66 143
66 87 0 164 -63 193 -157 14 -48 14 -58 0 -106 -31 -106 -153 -175 -240 -136
-24 11 -35 3 -233 -192 -114 -112 -347 -342 -516 -511 l-308 -307 0 -293 c1
-161 4 -367 7 -458 l7 -166 171 -59 c94 -32 177 -60 184 -63 9 -3 12 78 12
385 l0 388 -35 19 c-48 26 -89 111 -89 182 0 126 131 234 247 203 115 -30 181
-156 147 -281 -12 -41 -87 -115 -123 -120 -22 -3 -22 -6 -27 -238 -3 -129 -4
-237 -3 -239 4 -6 136 123 295 285 l137 140 6 231 7 230 -40 6 c-21 4 -54 17
-73 29 -42 29 -89 117 -89 170 0 136 145 243 267 197 38 -14 91 -66 115 -114
40 -77 19 -190 -44 -242 l-23 -18 3 -267 4 -266 -91 -98 c-50 -53 -91 -101
-91 -105 0 -5 98 -109 219 -232 120 -123 222 -234 226 -246 5 -16 14 -21 40
-21 l35 0 2 477 c2 309 -1 480 -7 485 -5 5 -21 17 -35 27 -30 22 -69 96 -77
146 -9 58 15 123 68 178 l47 48 -6 105 c-4 78 -8 104 -18 104 -21 0 -90 67
-108 104 -22 46 -20 128 3 174 39 76 97 112 180 112 127 0 225 -126 199 -255
-10 -51 -60 -113 -106 -132 -23 -10 -32 -19 -28 -29 3 -9 6 -53 6 -99 l0 -82
30 -6 c68 -14 140 -128 140 -221 -1 -73 -62 -152 -136 -176 l-37 -12 7 -76 c3
-41 6 -261 6 -488 l0 -412 30 -7 c44 -10 142 -77 177 -122 88 -111 103 -291
33 -421 -62 -118 -198 -214 -320 -228 l-60 -7 -21 -71 c-53 -177 -114 -374
-164 -521 -49 -143 -78 -261 -120 -480 -19 -94 -18 -347 0 -468 20 -132 39
-203 84 -307 57 -133 122 -222 258 -357 119 -119 139 -148 111 -171 -7 -5 -75
-29 -152 -51 -311 -94 -548 -197 -841 -366 -279 -160 -400 -244 -665 -459
-275 -223 -553 -523 -730 -786 -58 -86 -95 -116 -131 -105 -10 4 -70 75 -133
158 -320 427 -740 812 -1173 1078 -399 245 -756 405 -1138 511 -43 12 -50 18
-53 42 -3 23 7 37 59 84 136 122 184 181 262 322 47 85 103 255 117 355 17
129 23 381 11 480 -33 274 -47 337 -145 640 -54 165 -106 336 -118 380 -11 44
-24 85 -29 91 -5 6 -35 14 -67 18 -74 8 -147 44 -209 104 -62 60 -98 120 -119
202 -46 180 67 407 229 459 l37 13 0 489 c0 479 0 489 -20 489 -29 0 -82 52
-114 110 -24 44 -28 60 -24 111 5 71 40 121 111 159 l47 25 0 87 c0 47 3 93 6
101 3 10 -10 26 -41 47 -56 38 -84 94 -85 163 0 61 27 114 81 161 94 80 218
55 285 -59 35 -60 41 -114 20 -169 -19 -50 -95 -126 -126 -126 -19 0 -20 -6
-20 -112 l1 -113 31 -20 c46 -29 88 -114 88 -179 0 -40 -7 -62 -28 -97 -30
-46 -57 -73 -80 -80 -11 -4 -13 -97 -12 -483 0 -263 3 -483 6 -487 3 -5 18 -9
34 -9 24 0 37 10 68 53 22 28 104 122 183 208 79 86 165 181 192 210 l47 54
-94 95 -94 95 5 268 c6 266 6 268 -16 283 -50 35 -80 135 -61 205 44 162 217
218 326 105 69 -72 80 -156 34 -252 -24 -49 -88 -94 -133 -94 l-27 0 0 -239 0
-240 209 -213 c115 -117 212 -210 215 -208 3 3 6 112 8 242 l3 237 -26 5 c-59
12 -139 120 -139 189 0 81 54 166 124 198 143 65 301 -57 283 -219 -6 -56 -54
-132 -97 -156 l-35 -18 3 -376 c1 -207 4 -377 5 -379 9 -8 341 118 360 137 5
4 13 205 18 447 l10 439 -123 125 c-68 70 -226 224 -353 345 -126 120 -307
294 -401 387 -154 152 -174 168 -192 158 -48 -25 -141 -2 -184 46 -10 10 -27
41 -39 67 -41 94 -5 201 86 254 33 19 52 22 107 20 79 -4 109 -22 151 -90 38
-60 44 -112 22 -178 -17 -51 -17 -53 1 -63 11 -6 88 -80 172 -164 l152 -154 0
354 0 355 -32 6 c-122 24 -179 198 -102 309 62 89 188 114 268 53 118 -89 128
-250 22 -331 l-33 -25 5 -422 5 -421 101 -96 c56 -52 188 -182 295 -288 l193
-192 -6 -403 c-4 -222 -3 -424 1 -450 l8 -48 105 60 c58 33 131 73 162 88 l57
27 1 510 0 510 -36 25 c-20 13 -104 95 -188 181 -83 87 -197 199 -253 249
l-103 92 0 126 -1 127 -38 18 c-22 10 -51 36 -67 59 -26 37 -29 50 -29 118 0
68 4 82 30 126 20 32 44 56 69 68 38 19 38 19 32 64 -3 25 -6 79 -6 121 0 75
0 76 -31 90 -41 18 -87 83 -94 136 -7 45 18 119 53 158 29 33 89 57 140 57
124 0 221 -153 166 -263 -21 -41 -52 -75 -84 -92 -25 -13 -25 -13 -22 -139 3
-100 6 -126 17 -126 27 0 82 -60 105 -112 47 -110 2 -227 -110 -280 -3 -2 -3
-48 0 -103 l5 -100 222 -218 221 -219 1 189 c1 103 4 214 7 246 l7 59 -74 74
-73 73 2 73 c1 40 4 192 8 338 l6 265 -30 17 c-79 43 -117 180 -74 265 26 51
81 99 130 114 110 32 242 -86 242 -216 -1 -67 -66 -156 -126 -171 l-24 -6 0
-247 c0 -135 -3 -275 -6 -311 l-6 -65 66 -73 c36 -40 67 -80 68 -90 0 -9 2
-378 2 -819 1 -441 4 -804 7 -808 7 -6 293 198 305 217 4 6 8 382 9 837 1 454
5 834 9 844 6 13 4 17 -11 17 -29 0 -89 55 -112 103 -46 95 -10 212 84 268
l30 19 0 163 0 163 -38 18 c-69 33 -111 137 -88 222 32 120 154 193 258 153z"/>
<path d="M5058 9245 c-48 -27 -56 -106 -13 -142 35 -31 85 -30 123 2 38 32 47
67 27 105 -26 50 -82 65 -137 35z"/>
<path d="M4499 9011 c-31 -31 -37 -67 -17 -104 29 -55 84 -63 129 -18 46 46
37 106 -21 136 -41 21 -58 19 -91 -14z"/>
<path d="M5617 9029 c-26 -15 -48 -65 -41 -93 8 -33 44 -64 82 -72 43 -9 92
38 92 88 0 64 -78 109 -133 77z"/>
<path d="M4009 8951 c-37 -38 -37 -60 4 -99 42 -40 75 -41 116 -3 38 35 39 60
5 100 -35 42 -84 43 -125 2z"/>
<path d="M6091 8954 c-29 -36 -27 -75 5 -108 37 -36 75 -34 108 5 32 37 32 47
3 90 -31 47 -85 53 -116 13z"/>
<path d="M3543 8668 c-24 -12 -53 -64 -53 -96 0 -32 55 -72 100 -72 85 0 108
104 36 162 -24 20 -51 22 -83 6z"/>
<path d="M6581 8644 c-25 -21 -31 -34 -31 -64 0 -86 80 -122 141 -64 38 36 45
64 25 103 -30 57 -85 67 -135 25z"/>
<path d="M5054 8526 c-94 -94 19 -226 118 -137 45 40 46 96 3 141 -40 41 -77
40 -121 -4z"/>
<path d="M4019 8342 c-45 -40 -45 -94 -1 -133 43 -39 84 -38 123 0 41 41 40
88 -3 130 -40 39 -77 40 -119 3z"/>
<path d="M6076 8329 c-52 -62 -18 -149 59 -149 64 0 111 78 79 129 -40 61 -97
70 -138 20z"/>
<path d="M2979 8191 c-53 -53 -36 -116 39 -142 25 -9 37 -7 61 7 61 36 66 105
12 141 -45 31 -77 29 -112 -6z"/>
<path d="M7113 8188 c-30 -33 -36 -62 -19 -101 25 -62 83 -75 135 -31 24 20
31 34 31 61 0 76 -99 123 -147 71z"/>
<path d="M2639 7691 c-42 -42 -41 -99 2 -135 42 -35 74 -33 115 8 24 24 34 43
34 66 0 43 -47 90 -90 90 -22 0 -41 -9 -61 -29z"/>
<path d="M7478 7695 c-33 -19 -48 -44 -48 -83 0 -48 71 -98 116 -82 31 12 64
59 64 91 0 62 -77 105 -132 74z"/>
<path d="M3159 7355 c-14 -8 -32 -29 -39 -46 -12 -28 -11 -36 6 -68 25 -47 64
-69 100 -56 33 12 62 49 70 92 5 27 1 37 -24 63 -34 33 -70 38 -113 15z"/>
<path d="M6951 7336 c-27 -28 -29 -52 -12 -95 13 -31 55 -61 85 -61 24 0 73
48 79 77 15 80 -96 138 -152 79z"/>
<path d="M2622 7090 c-66 -40 -67 -104 -3 -147 45 -30 67 -29 102 6 40 40 41
101 3 136 -33 30 -58 31 -102 5z"/>
<path d="M7496 7079 c-40 -47 -36 -98 9 -138 44 -39 68 -39 106 -2 23 23 29
38 29 71 0 33 -6 48 -29 71 -40 40 -81 39 -115 -2z"/>
<path d="M3649 6937 c-62 -42 -62 -113 0 -150 44 -26 75 -21 105 14 38 45 36
99 -5 133 -38 32 -56 33 -100 3z"/>
<path d="M6471 6921 c-58 -58 -17 -161 64 -161 34 0 85 50 85 83 0 13 -10 39
-23 58 -19 28 -30 35 -64 37 -32 2 -47 -2 -62 -17z"/>
<path d="M4974 6352 c-194 -160 -591 -379 -859 -472 -316 -110 -336 -116 -610
-180 -122 -28 -283 -50 -372 -50 -44 0 -82 -3 -86 -6 -10 -10 20 -59 52 -87
31 -26 228 -129 271 -142 14 -4 72 -29 130 -55 324 -145 779 -286 1175 -364
119 -24 283 -45 345 -46 l25 0 0 719 c0 396 -3 722 -6 726 -4 3 -33 -16 -65
-43z"/>
<path d="M5170 5665 l0 -726 33 5 c480 79 532 90 857 171 244 61 556 185 945
375 120 58 164 85 175 105 11 21 12 28 1 34 -7 5 -77 11 -154 14 -103 3 -182
13 -287 35 -401 84 -638 162 -945 312 -239 117 -398 218 -592 375 l-33 26 0
-726z"/>
<path d="M6761 6182 c-45 -48 -107 -108 -137 -132 l-54 -45 0 -77 c0 -89 -14
-78 145 -107 171 -30 170 -30 345 -46 91 -8 174 -16 185 -17 34 -5 32 53 -3
104 -25 37 -385 408 -395 408 -2 0 -41 -40 -86 -88z"/>
<path d="M3195 6086 c-127 -128 -177 -186 -199 -228 -34 -69 -30 -91 16 -84
18 3 77 8 131 11 97 6 244 29 403 62 l83 17 3 70 c3 66 2 72 -22 91 -14 11
-74 67 -133 125 -60 58 -109 106 -110 106 -1 1 -79 -75 -172 -170z"/>
<path d="M2625 5701 c-100 -45 -155 -130 -155 -239 0 -116 60 -202 176 -253
141 -63 313 72 314 245 0 79 -16 128 -59 177 -68 81 -187 111 -276 70z m147
-151 c60 -47 61 -128 2 -179 -39 -34 -61 -38 -103 -17 -68 36 -82 121 -30 181
25 28 38 35 69 35 22 0 48 -8 62 -20z"/>
<path d="M7434 5706 c-46 -20 -112 -83 -137 -130 -15 -30 -21 -59 -21 -111 0
-161 125 -292 257 -271 120 19 227 143 227 262 0 161 -96 265 -246 264 -27 -1
-63 -7 -80 -14z m121 -140 c105 -44 75 -226 -37 -226 -32 0 -47 7 -74 34 -29
29 -34 41 -34 83 0 54 18 83 65 107 37 19 38 19 80 2z"/>
<path d="M7070 5361 c-19 -11 -78 -35 -130 -55 -52 -20 -124 -50 -160 -65
-331 -146 -496 -202 -906 -306 -489 -123 -853 -146 -1174 -75 -47 11 -149 33
-228 49 -133 28 -291 72 -572 158 -120 36 -402 145 -624 239 -188 80 -178 81
-211 -8 -42 -113 -45 -117 -122 -172 -71 -50 -73 -52 -67 -86 11 -69 218 -669
295 -858 135 -329 308 -655 473 -887 194 -273 551 -663 826 -902 191 -165 553
-453 571 -453 10 0 3 2425 -6 2432 -5 4 -22 8 -37 8 -53 0 -430 70 -585 109
-457 113 -718 204 -998 346 -228 115 -318 202 -328 313 -4 46 -2 52 12 46 9
-5 50 -9 91 -10 l74 -1 26 -64 c20 -50 36 -71 71 -97 70 -52 395 -198 589
-265 221 -76 555 -159 845 -208 303 -52 280 -50 464 -23 545 81 996 210 1396
398 163 77 190 105 215 218 7 32 22 66 32 75 19 17 21 16 58 -5 22 -12 48 -22
60 -22 11 0 32 -11 45 -25 20 -19 25 -34 25 -73 0 -45 -4 -53 -42 -89 -192
-176 -779 -414 -1313 -532 -188 -41 -419 -81 -475 -81 -25 0 -55 -3 -67 -6
l-23 -6 0 -1219 c0 -671 3 -1219 6 -1219 3 0 40 27 82 59 42 33 111 85 152
117 198 152 436 357 570 494 155 157 495 568 625 755 128 184 265 438 350 650
18 44 61 148 95 230 83 200 218 585 270 767 l19 68 -27 20 c-15 12 -43 31 -62
43 -45 29 -76 96 -97 210 -6 33 -31 35 -83 8z m-505 -946 l25 -24 0 -321 c0
-307 -1 -321 -20 -340 -22 -22 -60 -26 -91 -10 -18 10 -19 25 -19 336 l0 326
29 29 c36 35 45 36 76 4z m-2867 -1 c47 -33 50 -51 53 -371 4 -271 2 -304 -13
-319 -26 -26 -68 -21 -95 12 -23 29 -23 31 -23 335 0 295 1 307 21 333 24 30
27 31 57 10z m498 -185 l29 -30 3 -544 3 -544 -24 -16 c-29 -19 -67 -8 -91 27
-14 20 -16 83 -16 554 0 522 0 532 21 558 26 34 39 33 75 -5z m1901 5 c15 -24
17 -71 15 -568 -1 -540 -1 -541 -23 -558 -24 -20 -61 -23 -90 -8 -18 10 -19
27 -19 555 l0 543 26 31 c32 39 67 41 91 5z m-490 -96 c21 -23 21 -30 25 -745
3 -697 2 -722 -16 -742 -22 -24 -64 -27 -92 -7 -18 14 -19 33 -19 741 l0 727
28 24 c35 30 48 30 74 2z m-921 -19 c18 -20 19 -49 22 -738 2 -666 1 -717 -15
-728 -29 -22 -70 -16 -92 13 -21 26 -21 34 -21 727 l0 701 22 23 c27 29 59 29
84 2z"/>
<path d="M3202 3753 c-5 -10 -12 -74 -16 -143 -7 -150 -29 -279 -62 -380 -55
-162 -158 -333 -268 -440 -25 -24 -46 -47 -46 -51 0 -4 24 -13 53 -19 140 -33
462 -172 697 -302 395 -217 632 -386 963 -686 179 -162 484 -507 551 -624 25
-44 31 -46 47 -16 33 63 222 300 341 428 275 296 677 617 1023 815 354 204
797 395 914 395 21 0 14 10 -51 79 -42 43 -99 111 -128 152 -130 183 -210 444
-210 688 0 140 -14 157 -50 59 -36 -100 -85 -191 -198 -368 -169 -266 -260
-378 -544 -673 -265 -275 -478 -463 -791 -700 -156 -118 -271 -187 -312 -187
-60 1 -153 57 -385 234 -225 172 -426 351 -698 620 -197 196 -306 313 -360
386 -225 303 -282 393 -388 615 -35 74 -66 135 -69 135 -2 0 -8 -8 -13 -17z"/>
</g>
</svg>
