<svg xmlns="http://www.w3.org/2000/svg" viewBox="0 0 500 500">
  <!-- Background -->
  <rect width="500" height="500" fill="transparent"/>
  
  <!-- Knight Helmet with Circuit Elements -->
  <!-- Main Helmet Structure -->
  <path d="M250 450c-60 0-110-20-140-60-30-40-30-80-30-120 0-40 20-80 50-120 30-40 70-60 120-60s90 20 120 60c30 40 50 80 50 120 0 40 0 80-30 120-30 40-80 60-140 60z" fill="transparent" stroke="#f5f5f0" stroke-width="8"/>
  
  <!-- Helmet Visor -->
  <path d="M170 300c0 0 30 40 80 40 50 0 80-40 80-40" fill="transparent" stroke="#f5f5f0" stroke-width="8"/>
  <path d="M170 320c0 0 30 40 80 40 50 0 80-40 80-40" fill="transparent" stroke="#f5f5f0" stroke-width="8"/>
  
  <!-- Helmet Vertical Bars -->
  <line x1="220" y1="340" x2="220" y2="400" stroke="#f5f5f0" stroke-width="8"/>
  <line x1="250" y1="340" x2="250" y2="400" stroke="#f5f5f0" stroke-width="8"/>
  <line x1="280" y1="340" x2="280" y2="400" stroke="#f5f5f0" stroke-width="8"/>
  
  <!-- Circuit Elements on Top -->
  <path d="M250 90c-80 0-120 40-150 80-30 40-40 80-40 120 0 40 10 80 40 120 30 40 70 60 150 60s120-20 150-60c30-40 40-80 40-120 0-40-10-80-40-120-30-40-70-80-150-80z" fill="transparent" stroke="#f5f5f0" stroke-width="0"/>
  
  <!-- Circuit Nodes and Lines -->
  <!-- Left Side -->
  <circle cx="150" cy="200" r="10" fill="#1f2937" stroke="#f5f5f0" stroke-width="4"/>
  <circle cx="120" cy="240" r="10" fill="#1f2937" stroke="#f5f5f0" stroke-width="4"/>
  <circle cx="180" cy="160" r="10" fill="#1f2937" stroke="#f5f5f0" stroke-width="4"/>
  <circle cx="200" cy="120" r="10" fill="#1f2937" stroke="#f5f5f0" stroke-width="4"/>
  <circle cx="240" cy="100" r="10" fill="#1f2937" stroke="#f5f5f0" stroke-width="4"/>
  
  <!-- Right Side -->
  <circle cx="350" cy="200" r="10" fill="#1f2937" stroke="#f5f5f0" stroke-width="4"/>
  <circle cx="380" cy="240" r="10" fill="#1f2937" stroke="#f5f5f0" stroke-width="4"/>
  <circle cx="320" cy="160" r="10" fill="#1f2937" stroke="#f5f5f0" stroke-width="4"/>
  <circle cx="300" cy="120" r="10" fill="#1f2937" stroke="#f5f5f0" stroke-width="4"/>
  <circle cx="260" cy="100" r="10" fill="#1f2937" stroke="#f5f5f0" stroke-width="4"/>
  
  <!-- Top Nodes -->
  <circle cx="250" cy="80" r="10" fill="#1f2937" stroke="#f5f5f0" stroke-width="4"/>
  <circle cx="220" cy="90" r="10" fill="#1f2937" stroke="#f5f5f0" stroke-width="4"/>
  <circle cx="280" cy="90" r="10" fill="#1f2937" stroke="#f5f5f0" stroke-width="4"/>
  
  <!-- Gold Accent Nodes -->
  <circle cx="250" cy="60" r="15" fill="#1f2937" stroke="#d4af37" stroke-width="4"/>
  <circle cx="250" cy="120" r="15" fill="#1f2937" stroke="#d4af37" stroke-width="4"/>
  
  <!-- Connection Lines -->
  <line x1="250" y1="60" x2="250" y2="80" stroke="#f5f5f0" stroke-width="4"/>
  <line x1="250" y1="80" x2="220" y2="90" stroke="#f5f5f0" stroke-width="4"/>
  <line x1="250" y1="80" x2="280" y2="90" stroke="#f5f5f0" stroke-width="4"/>
  <line x1="220" y1="90" x2="200" y2="120" stroke="#f5f5f0" stroke-width="4"/>
  <line x1="280" y1="90" x2="300" y2="120" stroke="#f5f5f0" stroke-width="4"/>
  <line x1="200" y1="120" x2="180" y2="160" stroke="#f5f5f0" stroke-width="4"/>
  <line x1="300" y1="120" x2="320" y2="160" stroke="#f5f5f0" stroke-width="4"/>
  <line x1="180" y1="160" x2="150" y2="200" stroke="#f5f5f0" stroke-width="4"/>
  <line x1="320" y1="160" x2="350" y2="200" stroke="#f5f5f0" stroke-width="4"/>
  <line x1="150" y1="200" x2="120" y2="240" stroke="#f5f5f0" stroke-width="4"/>
  <line x1="350" y1="200" x2="380" y2="240" stroke="#f5f5f0" stroke-width="4"/>
  
  <!-- Helmet Base -->
  <path d="M150 280c0 0 40 80 100 80 60 0 100-80 100-80" fill="transparent" stroke="#f5f5f0" stroke-width="8"/>
</svg>